<svg width="306" height="303" viewBox="0 0 306 303" fill="none" xmlns="http://www.w3.org/2000/svg">
<path d="M124 10.5988C153.493 10.5988 181.212 22.083 202.069 42.9311C222.926 63.7792 234.41 91.5069 234.41 121C234.41 150.493 222.926 178.212 202.069 199.069C181.212 219.926 153.493 231.401 124 231.401C94.5069 231.401 66.7883 219.917 45.9311 199.069C25.0739 178.221 13.5988 150.493 13.5988 121C13.5988 91.5069 25.083 63.7883 45.9311 42.9311C66.7883 22.083 94.5069 10.5988 124 10.5988ZM124 -61C23.4814 -61 -58 20.4814 -58 121C-58 221.519 23.4814 303 124 303C224.519 303 306 221.519 306 121C306 20.4814 224.519 -61 124 -61Z" fill="#F5F5F5" style="mix-blend-mode:multiply"/>
</svg>
